<svg preserveAspectRatio="none" overflow="visible" style="display: block;" width="297.167" height="85.3333" viewBox="0 0 297.167 85.3333" fill="none" xmlns="http://www.w3.org/2000/svg">
<foreignObject x="0" y="-8" width="297.167" height="93.3333"><div xmlns="http://www.w3.org/1999/xhtml" style="backdrop-filter:blur(20px);height:100%;width:100%"></div></foreignObject><g id="Line 236" filter="url(#filter0_di_0_4)" data-figma-bg-blur-radius="40">
<path d="M40.5 34.1667C40.2239 34.1667 40 34.3905 40 34.6667C40 34.9428 40.2239 35.1667 40.5 35.1667V34.6667V34.1667ZM251.833 34.6667C251.833 36.1394 253.027 37.3333 254.5 37.3333C255.973 37.3333 257.167 36.1394 257.167 34.6667C257.167 33.1939 255.973 32 254.5 32C253.027 32 251.833 33.1939 251.833 34.6667ZM40.5 34.6667V35.1667H254.5V34.6667V34.1667H40.5V34.6667Z" fill="url(#paint0_linear_0_4)" fill-opacity="0.04"/>
</g>
<defs>
<filter id="filter0_di_0_4" x="0" y="-8" width="297.167" height="93.3333" filterUnits="userSpaceOnUse" color-interpolation-filters="sRGB">
<feFlood flood-opacity="0" result="BackgroundImageFix"/>
<feColorMatrix in="SourceAlpha" type="matrix" values="0 0 0 0 0 0 0 0 0 0 0 0 0 0 0 0 0 0 127 0" result="hardAlpha"/>
<feOffset dy="8"/>
<feGaussianBlur stdDeviation="20"/>
<feComposite in2="hardAlpha" operator="out"/>
<feColorMatrix type="matrix" values="0 0 0 0 0.160784 0 0 0 0 0 0 0 0 0 0.392157 0 0 0 0.04 0"/>
<feBlend mode="normal" in2="BackgroundImageFix" result="effect1_dropShadow_0_4"/>
<feBlend mode="normal" in="SourceGraphic" in2="effect1_dropShadow_0_4" result="shape"/>
<feColorMatrix in="SourceAlpha" type="matrix" values="0 0 0 0 0 0 0 0 0 0 0 0 0 0 0 0 0 0 127 0" result="hardAlpha"/>
<feOffset dy="4"/>
<feGaussianBlur stdDeviation="6"/>
<feComposite in2="hardAlpha" operator="arithmetic" k2="-1" k3="1"/>
<feColorMatrix type="matrix" values="0 0 0 0 0.996078 0 0 0 0 1 0 0 0 0 1 0 0 0 0.04 0"/>
<feBlend mode="normal" in2="shape" result="effect2_innerShadow_0_4"/>
</filter>
<linearGradient id="paint0_linear_0_4" x1="40.5" y1="34.6667" x2="40.5093" y2="36.6666" gradientUnits="userSpaceOnUse">
<stop stop-color="#FEFFFF"/>
<stop offset="1" stop-color="#EFE6FD"/>
</linearGradient>
</defs>
</svg>
