<svg preserveAspectRatio="none" overflow="visible" style="display: block;" width="48" height="48" viewBox="0 0 48 48" fill="none" xmlns="http://www.w3.org/2000/svg">
<g id="Frame 2147239283" opacity="0.3" filter="url(#filter0_i_0_11)">
<rect width="48" height="48" rx="24" fill="#676B6A" fill-opacity="0.1"/>
<g id="Vector" opacity="0.6" filter="url(#filter1_f_0_11)">
<path d="M25.0153 17.4124L20.0782 24.2565L25.3445 31.5154C25.3774 31.5707 25.3939 31.626 25.3774 31.6813C25.3609 31.7366 25.2951 31.6952 25.1964 31.709H21.4277C21.1644 31.709 20.9833 31.6952 20.8681 31.5569C20.5225 30.9762 20.1605 30.4093 19.8149 29.8286C19.4693 29.2617 19.0908 28.681 18.6958 28.0865C18.3008 27.4919 17.9059 26.8974 17.5109 26.289H17.478C17.1324 26.8836 16.7539 27.4781 16.3754 28.0726C15.9968 28.6672 15.6183 29.2617 15.2563 29.8424C14.8778 30.4231 14.4992 31.0177 14.1207 31.5846C14.0549 31.7228 13.9232 31.7367 13.7422 31.7367H10.1217C10.0558 31.7367 10.0065 31.7643 10.0065 31.6952C9.99 31.6399 10.0065 31.5846 10.0394 31.5431L15.1575 24.4916L10.171 17.3986C10.1217 17.3433 10.1052 17.288 10.1381 17.2604C10.171 17.2189 10.2369 17.2051 10.3027 17.2051H14.0384C14.1207 17.2051 14.203 17.2189 14.2688 17.2327C14.3347 17.2604 14.384 17.3018 14.4334 17.3571C14.7461 17.9517 15.1082 18.5462 15.4867 19.1408C15.8816 19.7353 16.2602 20.316 16.6716 20.8967C17.0666 21.4774 17.4286 22.0581 17.7742 22.6527H17.8071C18.1527 22.0443 18.5148 21.4498 18.8768 20.8691C19.2389 20.2883 19.6174 19.7076 19.9959 19.1269C20.3744 18.5462 20.7365 17.9517 21.0985 17.3848C21.115 17.3295 21.1479 17.2742 21.1973 17.2465C21.2631 17.2189 21.3289 17.2051 21.4112 17.2189H24.8837C24.966 17.2051 25.0483 17.2465 25.0647 17.3157C25.0812 17.3295 25.0483 17.3848 25.0153 17.4124ZM32.6185 31.9994C31.4007 32.0132 30.1829 31.8058 29.0802 31.3772C28.0434 30.9762 27.1877 30.3125 26.5952 29.4968C25.9863 28.6534 25.6901 27.6025 25.6901 26.3443C25.6736 25.3212 25.9863 24.3118 26.5952 23.427C27.2206 22.5282 28.1257 21.7816 29.2119 21.2839C30.3639 20.7446 31.7463 20.4819 33.3756 20.4819C33.4578 20.4819 33.573 20.4819 33.7212 20.4957C33.8693 20.5096 34.0338 20.5096 34.2313 20.5234V16.1542C34.2313 16.0575 34.2807 16.0021 34.3959 16.0021H37.7367C37.819 15.9883 37.8848 16.0436 37.9013 16.0989V29.2894C37.9013 29.5382 37.9177 29.8148 37.9342 30.119C37.9671 30.4093 37.9835 30.6858 38 30.9209C38 31.0177 37.9506 31.1006 37.8354 31.1421C36.9797 31.4463 36.0745 31.6675 35.1529 31.8058C34.3136 31.9302 33.4743 31.9994 32.6185 31.9994ZM34.2313 29.2341V23.1504C34.0832 23.1228 33.9351 23.0951 33.787 23.0813C33.606 23.0675 33.4249 23.0536 33.2439 23.0536C32.6021 23.0536 31.9602 23.1643 31.3842 23.4131C30.8247 23.6482 30.3474 23.9938 29.9854 24.4363C29.6233 24.8787 29.4423 25.4733 29.4423 26.1922C29.4258 26.6762 29.5246 27.1601 29.7221 27.6164C29.8866 27.9897 30.1335 28.3215 30.4626 28.598C30.7753 28.8469 31.1538 29.0405 31.5817 29.1511C32.0261 29.2755 32.4869 29.3308 32.9477 29.3308C33.1945 29.3308 33.4249 29.317 33.6389 29.3032C33.8528 29.317 34.0338 29.2894 34.2313 29.2341Z" fill="#CEB0FA"/>
</g>
</g>
<defs>
<filter id="filter0_i_0_11" x="0" y="0" width="48" height="49" filterUnits="userSpaceOnUse" color-interpolation-filters="sRGB">
<feFlood flood-opacity="0" result="BackgroundImageFix"/>
<feBlend mode="normal" in="SourceGraphic" in2="BackgroundImageFix" result="shape"/>
<feColorMatrix in="SourceAlpha" type="matrix" values="0 0 0 0 0 0 0 0 0 0 0 0 0 0 0 0 0 0 127 0" result="hardAlpha"/>
<feOffset dy="1"/>
<feGaussianBlur stdDeviation="4"/>
<feComposite in2="hardAlpha" operator="arithmetic" k2="-1" k3="1"/>
<feColorMatrix type="matrix" values="0 0 0 0 0.588235 0 0 0 0 0.329412 0 0 0 0 0.956863 0 0 0 0.2 0"/>
<feBlend mode="normal" in2="shape" result="effect1_innerShadow_0_11"/>
</filter>
<filter id="filter1_f_0_11" x="8" y="14" width="32" height="20" filterUnits="userSpaceOnUse" color-interpolation-filters="sRGB">
<feFlood flood-opacity="0" result="BackgroundImageFix"/>
<feBlend mode="normal" in="SourceGraphic" in2="BackgroundImageFix" result="shape"/>
<feGaussianBlur stdDeviation="1" result="effect1_foregroundBlur_0_11"/>
</filter>
</defs>
</svg>
