<svg preserveAspectRatio="none" overflow="visible" style="display: block;" width="24" height="24" viewBox="0 0 24 24" fill="none" xmlns="http://www.w3.org/2000/svg">
<g id="Frame 2147239586">
<path id="Union" d="M10.4424 3.01664C11.0376 1.66127 12.9607 1.66108 13.5557 3.01664L20.8477 19.6319C21.4269 20.9519 20.2032 22.3489 18.8184 21.9483L13.4922 20.4063C12.9091 20.2376 12.4602 19.771 12.3145 19.1817L12.2901 19.0831C12.2148 18.7793 11.7823 18.7793 11.7071 19.0831L11.6836 19.1817C11.538 19.7711 11.0882 20.2375 10.5049 20.4063L5.17876 21.9483C3.79393 22.3489 2.5703 20.9519 3.14946 19.6319L10.4424 3.01664ZM12.2735 3.57914C12.1684 3.3402 11.8287 3.34017 11.7237 3.57914L4.43169 20.1944C4.32947 20.4273 4.54478 20.6731 4.78911 20.6026L10.1163 19.0616C10.2191 19.0317 10.2986 18.9497 10.3243 18.8457L10.3487 18.7481C10.7742 17.0247 13.224 17.0247 13.6495 18.7481L13.6729 18.8457C13.6986 18.9497 13.7781 19.0317 13.8809 19.0616L19.2081 20.6026C19.4523 20.6732 19.6683 20.4272 19.5665 20.1944L12.2735 3.57914Z" fill="#D9D7DD"/>
</g>
</svg>
