<svg preserveAspectRatio="none" overflow="visible" style="display: block;" width="56" height="36" viewBox="0 0 56 36" fill="none" xmlns="http://www.w3.org/2000/svg">
<g id="Group 2085665307">
<path id="Vector" fill-rule="evenodd" clip-rule="evenodd" d="M0 34C0 35.1046 0.895431 36 2 36H54C55.1046 36 56 35.1046 56 34V2C56 0.895431 55.1046 0 54 0H2C0.89543 0 0 0.895431 0 2V34Z" fill="#1B3771"/>
<path id="Vector_2" fill-rule="evenodd" clip-rule="evenodd" d="M27.2707 29.8588C30.0939 32.432 33.8901 34 38.0003 34C46.8473 34 54 26.8469 54 17.9997C54 9.18435 46.8476 2 38.0003 2C33.8901 2 30.0942 3.56871 27.2707 6.14116C24.0391 9.0898 22 13.2939 22 17.9997C22 22.7064 24.0391 26.9415 27.2707 29.8588Z" fill="#E9B040"/>
<path id="Vector_3" fill-rule="evenodd" clip-rule="evenodd" d="M33.9058 16.3055C33.8423 15.7362 33.748 15.1707 33.6235 14.6116H23.8355C23.9631 14.0391 24.1202 13.4736 24.3063 12.9174H33.1531C32.9608 12.3424 32.741 11.777 32.4943 11.2231H24.9648C25.2543 10.6453 25.5683 10.08 25.9059 9.52892H31.5528C31.2022 8.92518 30.7925 8.35776 30.3297 7.83504H27.1294C27.6001 7.23878 28.1647 6.67416 28.7294 6.14116C25.9059 3.56837 22.141 2 17.9999 2C9.153 2 2 9.18435 2 17.9997C2 26.8466 9.153 34 17.9999 34C22.141 34 25.9056 32.4316 28.7294 29.8588C29.2937 29.3255 29.8589 28.7612 30.3606 28.165H27.129C26.6863 27.6264 26.2777 27.0607 25.9056 26.4711H31.5528C31.9034 25.9275 32.2179 25.3614 32.4943 24.7765H24.9648C24.7075 24.2273 24.4874 23.6614 24.3059 23.0826H33.1528C33.3385 22.5262 33.4956 21.9606 33.6235 21.3881C33.749 20.8238 33.8426 20.2585 33.9058 19.6942C34.0314 18.5681 34.0314 17.4316 33.9058 16.3055Z" fill="#CC2131"/>
<path id="Vector_4" fill-rule="evenodd" clip-rule="evenodd" d="M38.7804 14.0287L38.5123 15.6932C37.9177 15.3961 37.5019 15.2772 37.0559 15.2772C35.8077 15.2772 34.946 16.4663 34.946 18.1605C34.946 19.3201 35.5406 20.0329 36.491 20.0329C36.9073 20.0329 37.3534 19.9146 37.8883 19.6465L37.5915 21.4007C36.9969 21.5492 36.6108 21.6088 36.1352 21.6088C34.381 21.6088 33.2814 20.36 33.2814 18.3091C33.2814 15.5446 34.7971 13.6426 36.967 13.6426C37.2644 13.6426 37.5022 13.6722 37.7104 13.7019L38.3937 13.8801C38.6018 13.9691 38.6315 13.9691 38.7804 14.0287ZM33.5193 15.1879C33.4597 15.1582 33.4004 15.1582 33.3407 15.1582C32.8061 15.1582 32.5083 15.4257 32.0033 16.1689L32.1519 15.2175H30.6362L29.6549 21.4896H31.2901C31.8847 17.6552 32.033 17.001 32.8357 17.001H32.9546C33.1032 16.2578 33.2818 15.6932 33.5789 15.1876L33.5193 15.1879ZM24.0367 21.4003C23.5907 21.5489 23.2343 21.6085 22.8475 21.6085C22.0151 21.6085 21.5398 21.1329 21.5398 20.2408C21.5398 20.0629 21.5694 19.8841 21.5991 19.6765L21.688 19.0519L21.7773 18.5763L22.4908 14.2962H24.1257L23.9475 15.2175H24.7799L24.542 16.7632H23.7099L23.2639 19.3494C23.2639 19.4683 23.2343 19.5576 23.2343 19.6169C23.2343 19.944 23.4125 20.0926 23.7992 20.0926C24.0074 20.0926 24.1263 20.0629 24.2452 20.0329L24.0367 21.4003ZM17.7054 17.2092C17.7054 17.9817 18.0918 18.5466 18.9538 18.933C19.6374 19.2601 19.7266 19.3494 19.7266 19.6465C19.7266 20.0329 19.4295 20.2115 18.7753 20.2115C18.2996 20.2115 17.8539 20.1222 17.3186 19.944L17.0808 21.4003H17.1701L17.4675 21.46C17.6024 21.5009 17.7427 21.5209 17.8836 21.5193C18.27 21.5489 18.5971 21.5786 18.805 21.5786C20.5291 21.5786 21.3316 20.925 21.3316 19.498C21.3316 18.6362 21.0048 18.1309 20.1724 17.7438C19.4885 17.447 19.3995 17.3577 19.3995 17.0903C19.3995 16.7335 19.667 16.5553 20.202 16.5553C20.5291 16.5553 20.9748 16.6146 21.3909 16.6742L21.6287 15.2175C21.2127 15.1582 20.5584 15.0986 20.1724 15.0986C18.3296 15.0986 17.7054 16.05 17.7054 17.2092ZM51.3542 21.4896H49.7789L49.8675 20.8654C49.4215 21.341 48.9458 21.5486 48.3512 21.5486C47.1627 21.5486 46.3602 20.5383 46.3602 18.963C46.3602 16.8821 47.5788 15.1283 49.0351 15.1283C49.6893 15.1283 50.165 15.3958 50.6104 15.9903L50.9671 13.7905H52.6023L51.3542 21.4896ZM48.9162 20.003C49.6893 20.003 50.224 19.1412 50.224 17.893C50.224 17.1199 49.9272 16.6742 49.3622 16.6742C48.6194 16.6742 48.0838 17.536 48.0838 18.7845C48.0838 19.5872 48.3512 20.003 48.9162 20.003ZM29.06 21.341C28.4954 21.5189 27.9604 21.6085 27.3658 21.6085C25.5227 21.6085 24.5717 20.6272 24.5717 18.8141C24.5717 16.6446 25.7905 15.069 27.4551 15.069C28.7928 15.069 29.6546 15.9607 29.6546 17.3577C29.6546 17.8038 29.5953 18.2498 29.4767 18.9034H26.2069C26.1769 18.9926 26.1769 19.0223 26.1769 19.0819C26.1769 19.7954 26.6526 20.1815 27.6336 20.1815C28.1985 20.1815 28.7335 20.0626 29.3281 19.7951L29.06 21.341ZM28.1389 17.6249V17.2981C28.1389 16.7928 27.8711 16.4957 27.3661 16.4957C26.8611 16.4957 26.4744 16.9117 26.3258 17.6249H28.1389ZM11.4632 21.4896H9.82836L10.7794 15.5743L8.66883 21.4896H7.53958L7.42066 15.6039L6.41001 21.4896H4.89404L6.17218 13.7905H8.52026L8.60953 18.5466L10.1851 13.7905H12.7414L11.4632 21.4896ZM15.5355 18.6952C15.357 18.6655 15.268 18.6655 15.1491 18.6655C14.2277 18.6655 13.752 18.9926 13.752 19.6169C13.752 20.0033 13.9896 20.2711 14.3463 20.2711C15.0302 20.2711 15.5058 19.6169 15.5355 18.6952ZM16.7244 21.4896H15.357L15.3869 20.8354C14.9709 21.3414 14.4356 21.5782 13.6628 21.5782C12.771 21.5782 12.1764 20.895 12.1764 19.884C12.1764 18.3684 13.2171 17.4764 15.0598 17.4764C15.238 17.4764 15.4759 17.4763 15.7137 17.506C15.773 17.3278 15.773 17.2388 15.773 17.1199C15.773 16.7039 15.5055 16.555 14.7327 16.555C14.257 16.555 13.7221 16.6143 13.3653 16.7332L13.1275 16.7925L12.9789 16.8221L13.2167 15.4251C14.0489 15.1873 14.5838 15.098 15.1784 15.098C16.6051 15.098 17.3483 15.7222 17.3483 16.9114C17.3483 17.2385 17.3183 17.476 17.1994 18.1599L16.8726 20.3894L16.8133 20.7758L16.7833 21.1023L16.7537 21.3104L16.7244 21.4896ZM41.4556 18.6952C41.2777 18.6655 41.1881 18.6655 41.0692 18.6655C40.1475 18.6655 39.6718 18.9926 39.6718 19.6169C39.6718 20.0033 39.9096 20.2711 40.2664 20.2711C40.9203 20.2711 41.4259 19.6169 41.4556 18.6952ZM42.6444 21.4896H41.2773L41.307 20.8354C40.8906 21.3414 40.3263 21.5782 39.5825 21.5782C38.6911 21.5782 38.0669 20.895 38.0669 19.884C38.0669 18.3684 39.1371 17.4764 40.9796 17.4764C41.1575 17.4764 41.3959 17.4763 41.6332 17.506C41.6928 17.3278 41.6928 17.2388 41.6928 17.1199C41.6928 16.7039 41.4253 16.555 40.6522 16.555C40.1765 16.555 39.6418 16.6143 39.2851 16.7332L39.0472 16.7925L38.8987 16.8221L39.1365 15.4251C39.9683 15.1873 40.5036 15.098 41.0982 15.098C42.5249 15.098 43.268 15.7222 43.268 16.9114C43.268 17.2385 43.2384 17.476 43.1195 18.1599L42.7924 20.3894L42.7331 20.7758L42.6735 21.1023L42.6438 21.3104V21.4896H42.6444ZM47.0441 15.1879C47.0138 15.1582 46.9548 15.1582 46.8949 15.1582C46.3602 15.1582 46.0331 15.4257 45.5278 16.1689L45.6764 15.2175H44.1904L43.1794 21.4896H44.8439C45.4089 17.6552 45.5874 17.001 46.3602 17.001H46.4792C46.6277 16.2578 46.8359 15.6932 47.1034 15.1876L47.0441 15.1879Z" fill="white"/>
</g>
</svg>
