<svg preserveAspectRatio="none" overflow="visible" style="display: block;" width="24" height="24" viewBox="0 0 24 24" fill="none" xmlns="http://www.w3.org/2000/svg">
<g id="Arrow Corner S">
<path id="Union" d="M10.2849 5.71507C10.5192 5.48097 10.8986 5.48109 11.1329 5.71507C11.2172 5.7994 11.4388 5.91788 11.8379 6.02512C12.213 6.12581 12.6611 6.19545 13.1044 6.24195H13.1058C14.2261 6.36138 15.3575 6.30337 16.4417 6.0341C16.8574 5.93082 17.2846 5.79993 17.6626 5.63773C17.9511 5.51394 18.1907 5.38044 18.3718 5.24206L18.5327 5.10188L18.5334 5.10257C18.7677 4.86845 19.1471 4.8684 19.3813 5.10257C19.6156 5.33683 19.6155 5.71622 19.3813 5.95055C19.1931 6.13882 19.0105 6.4362 18.8455 6.82062C18.6832 7.19872 18.5514 7.62559 18.4484 8.04079H18.4498C18.1809 9.12592 18.1228 10.2578 18.2413 11.3775L18.2406 11.3781C18.2873 11.8217 18.3572 12.2699 18.4581 12.6453C18.5656 13.0449 18.6844 13.2663 18.7681 13.3503C19.0024 13.5846 19.0023 13.964 18.7681 14.1983C18.5338 14.4325 18.1538 14.4332 17.9195 14.199C17.5999 13.8792 17.4173 13.3925 17.3001 12.9567C17.1762 12.496 17.0974 11.9787 17.0473 11.5038C16.9292 10.3871 16.9698 9.24665 17.2006 8.13125L6.08994 19.2419C5.85573 19.476 5.47627 19.4759 5.24197 19.2419C5.00799 19.0076 5.00719 18.6275 5.24128 18.3933L16.3513 7.28328C15.3916 7.48211 14.4129 7.54019 13.4462 7.47594L12.9787 7.43519C12.5043 7.38542 11.9876 7.30744 11.5272 7.18384C11.0912 7.06673 10.6044 6.88392 10.2842 6.56374C10.0503 6.32944 10.0508 5.9493 10.2849 5.71507Z" fill="#010003"/>
</g>
</svg>
